<?xml version="1.0" encoding="utf-8"?>
<svg viewBox="232.845 6.253 165.052 117.243" width="165.052" height="117.243" xmlns="http://www.w3.org/2000/svg">
  <path id="path18" style="fill:#c09629;fill-opacity:1;fill-rule:nonzero;stroke:none" d="m 1920.89,5500.18 h 888.79 v 185.29 h -888.79 v -185.29" transform="matrix(0.133333, 0, 0, -0.133333, 0, 856.853333)"/>
  <path id="path20" style="fill:#c09629;fill-opacity:1;fill-rule:nonzero;stroke:none" d="m 2984.23,6013.03 -68.47,121.99 -135.7,-33.96 -54.46,-210.11 h -87.79 l 71.33,150.68 -57.11,78.33 -90.6,-34.48 -26.43,-194.53 h -74.05 l 89.06,354.6 -184.72,133.95 -184.73,-133.95 89.07,-354.6 h -74.05 l -26.44,194.53 -90.6,34.48 -57.1,-78.33 71.32,-150.68 h -87.79 l -54.46,210.11 -135.7,33.96 -68.47,-121.99 170.52,-271.61 4.03,-0.04 v -0.61 h 888.79 v 0.61 l 4.03,0.04 170.52,271.61" transform="matrix(0.133333, 0, 0, -0.133333, 0, 856.853333)"/>
</svg>