<?xml version="1.0" encoding="utf-8"?>
<svg viewBox="0 0 892.98669 856.85333" height="856.85333" width="892.98669" id="svg2" version="1.1" xmlns="http://www.w3.org/2000/svg">
  <g transform="matrix(1.3333333,0,0,-1.3333333,0,856.85333)" id="g10">
    <g transform="scale(0.1)" id="g12">
      <path id="path14" style="fill:#c09629;fill-opacity:1;fill-rule:nonzero;stroke:none" d="m 515.754,6053.84 64.726,-37.38 v -74.74 l -64.726,-37.36 -64.727,37.36 v 74.74 z m 464.289,-194.47 v 45.7 l -64.727,36.65 v 74.74 l 64.727,36.87 v 366.36 L 715.301,6141.92 515.754,6407.02 316.211,6141.92 51.4688,6419.69 v -366.36 l 64.7262,-36.87 v -74.74 l -64.7262,-36.65 v -45.7 H 980.043"/>
      <path id="path16" style="fill:#c09629;fill-opacity:1;fill-rule:nonzero;stroke:none" d="m 632.559,5714.89 v -59.06 H 398.953 v 59.06 z m 347.484,-214.71 v 155.65 H 768.25 v 59.06 h 211.793 v 87 H 51.4688 v -87 H 263.262 v -59.06 H 51.4688 V 5500.18 H 980.043"/>
      <path id="path18" style="fill:#c09629;fill-opacity:1;fill-rule:nonzero;stroke:none" d="m 1920.89,5500.18 h 888.79 v 185.29 h -888.79 v -185.29"/>
      <path id="path20" style="fill:#c09629;fill-opacity:1;fill-rule:nonzero;stroke:none" d="m 2984.23,6013.03 -68.47,121.99 -135.7,-33.96 -54.46,-210.11 h -87.79 l 71.33,150.68 -57.11,78.33 -90.6,-34.48 -26.43,-194.53 h -74.05 l 89.06,354.6 -184.72,133.95 -184.73,-133.95 89.07,-354.6 h -74.05 l -26.44,194.53 -90.6,34.48 -57.1,-78.33 71.32,-150.68 h -87.79 l -54.46,210.11 -135.7,33.96 -68.47,-121.99 170.52,-271.61 4.03,-0.04 v -0.61 h 888.79 v 0.61 l 4.03,0.04 170.52,271.61"/>
      <path id="path22" style="fill:#c09629;fill-opacity:1;fill-rule:nonzero;stroke:none" d="m 4687.5,5500.18 v 130.55 h -934.77 v -130.55 h 934.77"/>
      <path id="path24" style="fill:#c09629;fill-opacity:1;fill-rule:nonzero;stroke:none" d="m 4687.5,5703.25 v 668.86 l -59.07,-45.13 c -35.66,-27.23 -53.58,-71.77 -46.72,-116.11 l 38.15,-246.52 h -110.27 l 17.43,112.67 c 6.87,44.34 -11.06,88.88 -46.71,116.11 l -18.77,14.34 -18.77,-14.34 c -35.65,-27.23 -53.57,-71.77 -46.71,-116.11 l 17.43,-112.67 h -93.53 l 42.25,273.08 c 6.86,44.33 -11.06,88.87 -46.71,116.11 l -95.39,72.85 -95.38,-72.85 c -35.65,-27.24 -53.57,-71.78 -46.71,-116.11 l 42.25,-273.08 h -93.53 l 17.43,112.67 c 6.86,44.34 -11.06,88.88 -46.71,116.11 l -18.77,14.34 -18.77,-14.34 c -35.66,-27.23 -53.58,-71.77 -46.72,-116.11 l 17.44,-112.67 h -110.27 l 38.15,246.52 c 6.86,44.34 -11.06,88.88 -46.72,116.11 l -59.07,45.13 v -407.76 -52.6 -208.5 h 934.77"/>
      <path id="path26" style="fill:#c09629;fill-opacity:1;fill-rule:nonzero;stroke:none" d="m 6519.75,5500.18 v 171.79 h -914.09 v -171.79 h 914.09"/>
      <path id="path28" style="fill:#c09629;fill-opacity:1;fill-rule:nonzero;stroke:none" d="m 6202.45,5750.77 h 317.3 c 0,429.07 0,490.62 0,660.35 L 6333.13,6224.5 c 1.09,-1.56 1.98,-3.04 3.04,-4.59 45.4,-49.62 75.97,-110.46 88.09,-176.15 6.67,-36.17 -3.09,-73.42 -26.6,-101.7 -23.52,-28.28 -58.41,-44.76 -95.19,-44.76 h -0.1 c -44.68,0 -83.97,29.55 -96.37,72.47 -12.39,42.93 5.12,88.85 42.9,112.71 11.65,7.35 24.15,13.51 37.34,18.29 l -223.54,193.72 -223.53,-193.72 c 13.19,-4.78 25.69,-10.94 37.34,-18.29 37.78,-23.86 55.29,-69.78 42.9,-112.71 -12.4,-42.92 -51.69,-72.47 -96.37,-72.47 h -0.1 c -36.78,0 -71.67,16.48 -95.19,44.76 -23.51,28.28 -33.27,65.53 -26.6,101.7 12.12,65.69 42.69,126.53 88.09,176.15 1.06,1.55 1.95,3.03 3.04,4.59 l -186.62,186.62 c 0,-169.73 0,-231.28 0,-660.35 h 171.61 145.69 279.49"/>
      <path id="path30" style="fill:#c09629;fill-opacity:1;fill-rule:nonzero;stroke:none" d="m 515.754,3932.87 c 38.101,0 68.988,-30.88 68.988,-68.98 0,-38.11 -30.887,-68.99 -68.988,-68.99 -38.102,0 -68.984,30.88 -68.984,68.99 0,38.1 30.882,68.98 68.984,68.98 z m 450.867,-268.44 v 130.47 c -38.098,0 -68.984,30.88 -68.984,68.99 0,38.1 30.886,68.98 68.984,68.98 v 474.71 c -73.777,-45.32 -160.562,-127.53 -149.582,-216.53 23.899,-24.31 38.684,-57.63 38.684,-94.41 0,-74.42 -60.328,-134.75 -134.746,-134.75 -74.414,0 -134.743,60.33 -134.743,134.75 0,44.16 21.344,83.23 54.168,107.81 26.184,42.96 30.383,69.17 22.536,115.03 -19.696,115.05 -147.184,245.64 -147.184,245.64 0,0 -127.484,-130.59 -147.18,-245.64 -7.847,-45.86 -3.648,-72.07 22.535,-115.03 32.825,-24.58 54.168,-63.65 54.168,-107.81 0,-74.42 -60.328,-134.75 -134.746,-134.75 -74.414,0 -134.742,60.33 -134.742,134.75 0,36.78 14.781,70.1 38.684,94.41 10.98,89 -75.805,171.21 -149.5863,216.53 v -474.71 c 38.1013,0 68.9883,-30.88 68.9883,-68.98 0,-38.11 -30.887,-68.99 -68.9883,-68.99 V 3664.43 H 966.621"/>
      <path id="path32" style="fill:#c09629;fill-opacity:1;fill-rule:nonzero;stroke:none" d="m 2365.29,4578.58 174.53,-321.39 -67.39,-202.95 c -5.84,-17.59 -2.88,-36.91 7.97,-51.94 10.84,-15.03 28.25,-23.93 46.78,-23.93 h 7.67 c 28.55,0 52.8,20.88 57.05,49.11 l 32.23,214.45 316.89,336.65 -259.66,-914.15 h -632.14 l -259.67,914.15 316.89,-336.65 32.24,-214.45 c 4.24,-28.23 28.5,-49.11 57.05,-49.11 h 7.67 c 18.53,0 35.93,8.9 46.78,23.93 10.84,15.03 13.81,34.35 7.97,51.94 l -67.39,202.95 174.53,321.39"/>
      <path id="path34" style="fill:#c09629;fill-opacity:1;fill-rule:nonzero;stroke:none" d="m 4550.36,4572.4 -169.02,-125.41 81.13,-97.25 59.64,44.25 100.71,-141.54 -135.09,-243.5 -180.15,53.79 -18.05,58.22 89.56,-25.67 106.24,86.2 -106.24,86.2 -76.75,-22 46.33,161.63 -128.56,158.46 -128.55,-158.46 46.33,-161.63 -76.75,22 -106.24,-86.2 106.24,-86.2 89.55,25.67 -18.04,-58.22 -180.15,-53.79 -135.09,243.5 100.71,141.54 59.64,-44.25 81.12,97.25 -169.01,125.41 -221.73,-311.58 216.84,-390.86 h 670.27 l 216.84,390.86 -221.73,311.58"/>
      <path id="path36" style="fill:#c09629;fill-opacity:1;fill-rule:nonzero;stroke:none" d="m 3887.13,3664.43 h 665.97 v 159.11 h -665.97 v -159.11"/>
      <path id="path38" style="fill:#c09629;fill-opacity:1;fill-rule:nonzero;stroke:none" d="m 6062.7,3665.46 342.9,-1.03 222.56,698.13 c 5.13,-1.65 10.5,-2.78 16.18,-2.78 29.32,0 53.08,23.76 53.08,53.08 0,29.31 -23.76,53.08 -53.08,53.08 -29.31,0 -53.08,-23.77 -53.08,-53.08 0,-18.1 9.09,-34.03 22.92,-43.62 l -256.35,-374.65 -12.74,273.36 c 1.78,-0.18 3.49,-0.53 5.31,-0.53 29.31,0 53.08,23.76 53.08,53.08 0,29.31 -23.77,53.08 -53.08,53.08 -29.32,0 -53.08,-23.77 -53.08,-53.08 0,-22.59 14.17,-41.76 34.06,-49.42 l -135.97,-211.74 -124.12,417.02 c 25.21,4.13 44.5,25.84 44.5,52.21 0,29.32 -23.77,53.08 -53.09,53.08 -29.31,0 -53.08,-23.76 -53.08,-53.08 0,-26.37 19.29,-48.08 44.5,-52.21 L 5930,4059.34 5794.03,4271.08 c 19.89,7.66 34.06,26.83 34.06,49.42 0,29.31 -23.76,53.08 -53.08,53.08 -29.31,0 -53.08,-23.77 -53.08,-53.08 0,-29.32 23.77,-53.08 53.08,-53.08 1.82,0 3.53,0.35 5.31,0.53 l -12.74,-273.36 -256.35,374.65 c 13.83,9.59 22.92,25.52 22.92,43.62 0,29.31 -23.77,53.08 -53.08,53.08 -29.32,0 -53.08,-23.77 -53.08,-53.08 0,-29.32 23.76,-53.08 53.08,-53.08 5.68,0 11.05,1.13 16.18,2.78 l 222.56,-698.13 342.89,1.03"/>
      <path id="path40" style="fill:#c09629;fill-opacity:1;fill-rule:nonzero;stroke:none" d="m 422.781,2356.12 c 0,-51.35 41.625,-92.98 92.973,-92.98 51.351,0 92.976,41.63 92.976,92.98 0,51.35 -41.625,92.98 -92.976,92.98 -51.348,0 -92.973,-41.63 -92.973,-92.98"/>
      <path id="path42" style="fill:#c09629;fill-opacity:1;fill-rule:nonzero;stroke:none" d="m 569.754,2480.71 56.074,97.13 -56.074,97.13 H 461.758 l -56.074,-97.13 56.074,-97.13 h 107.996"/>
      <path id="path44" style="fill:#c09629;fill-opacity:1;fill-rule:nonzero;stroke:none" d="m 836.445,2293.62 v 112.15 l -97.125,56.08 -97.129,-56.08 v -112.15 l 97.129,-56.08 97.125,56.08"/>
      <path id="path46" style="fill:#c09629;fill-opacity:1;fill-rule:nonzero;stroke:none" d="m 389.32,2293.62 v 112.15 l -97.129,56.08 -97.125,-56.08 v -112.15 l 97.125,-56.08 97.129,56.08"/>
      <path id="path48" style="fill:#c09629;fill-opacity:1;fill-rule:nonzero;stroke:none" d="m 571.832,2022.76 56.074,97.13 -56.074,97.13 H 459.68 l -56.078,-97.13 56.078,-97.13 h 112.152"/>
      <path id="path50" style="fill:#c09629;fill-opacity:1;fill-rule:nonzero;stroke:none" d="m 1030.63,2440.48 -97.126,-56.07 v -111.7 l -96.738,-55.86 v -87.93 l -0.321,0.18 -97.125,-56.07 V 1971.68 H 292.191 v 101.35 l -97.125,56.07 -0.324,-0.18 v 87.93 l -96.7342,55.86 v 111.7 L 0.878906,2440.48 0,2439.97 v -223.28 l 0.492188,-0.29 v -111.7 l 97.125012,-56.07 0.3242,0.18 v -77.13 H 64.168 v -195.49 h 903.176 v 195.49 H 933.57 v 77.13 l 0.321,-0.18 97.129,56.07 v 111.7 l 0.49,0.29 v 223.28 l -0.88,0.51"/>
      <path id="path52" style="fill:#c09629;fill-opacity:1;fill-rule:nonzero;stroke:none" d="m 1908.34,1776.19 h 913.9 v 221.06 h -913.9 v -221.06"/>
      <path id="path54" style="fill:#c09629;fill-opacity:1;fill-rule:nonzero;stroke:none" d="m 2530.86,2456.27 -165.57,220.61 -165.57,-220.61 165.57,-165.48 165.57,165.48"/>
      <path id="path56" style="fill:#c09629;fill-opacity:1;fill-rule:nonzero;stroke:none" d="m 2413.24,2239.62 150.86,-150.87 h 258.14 v 566.29 l -409,-415.42"/>
      <path id="path58" style="fill:#c09629;fill-opacity:1;fill-rule:nonzero;stroke:none" d="m 2317.33,2239.62 -408.99,415.42 v -566.29 h 258.13 l 150.86,150.87"/>
      <path id="path60" style="fill:#c09629;fill-opacity:1;fill-rule:nonzero;stroke:none" d="m 2461.72,2088.75 -96.43,105.31 -96.43,-105.31 z"/>
      <path id="path62" style="fill:#c09629;fill-opacity:1;fill-rule:nonzero;stroke:none" d="m 4407.99,1776.19 h 200.48 v 36.99 c 0,89.12 37.84,174.04 104.1,233.63 l 106.02,95.35 c 26.12,-29.38 70.27,-36.39 104.33,-14.4 37.63,24.29 48.44,74.49 24.14,112.12 -24.29,37.63 -74.49,48.44 -112.11,24.14 -34.04,-21.97 -45.84,-65.05 -29.87,-100.94 l -299.37,-131.23 159.82,288.51 c 34.28,-19.24 78.3,-11.45 103.31,20.45 27.64,35.25 21.47,86.22 -13.77,113.86 -35.24,27.64 -86.22,21.47 -113.86,-13.78 -24.99,-31.87 -22.09,-76.45 4.73,-105.15 l -240.15,-221.77 56.89,324.88 c 38.69,-7 77.76,14.74 90.99,53.05 14.62,42.34 -7.85,88.51 -50.19,103.13 -42.33,14.62 -88.5,-7.85 -103.12,-50.19 -13.22,-38.29 4.07,-79.47 38.79,-97.85 l -154.61,-288.01 -52.26,325.66 c 38.85,6.01 68.68,39.3 68.68,79.84 0,44.7 -36.17,80.96 -80.85,81.1 -44.67,-0.14 -80.84,-36.4 -80.84,-81.1 0,-40.54 29.83,-73.83 68.68,-79.84 l -52.27,-325.66 -154.6,288.01 c 34.72,18.38 52.01,59.56 38.79,97.85 -14.62,42.34 -60.79,64.81 -103.12,50.19 -42.34,-14.62 -64.81,-60.79 -50.19,-103.13 13.23,-38.31 52.3,-60.05 90.99,-53.05 l 56.89,-324.88 -240.15,221.77 c 26.82,28.7 29.72,73.28 4.73,105.15 -27.64,35.25 -78.62,41.42 -113.86,13.78 -35.25,-27.64 -41.41,-78.61 -13.78,-113.86 25.02,-31.9 69.04,-39.69 103.32,-20.45 l 159.82,-288.51 -299.38,131.23 c 15.98,35.89 4.18,78.97 -29.86,100.94 -37.63,24.3 -87.82,13.49 -112.11,-24.14 -24.3,-37.63 -13.49,-87.83 24.14,-112.12 34.06,-21.99 78.21,-14.98 104.33,14.4 l 106.02,-95.35 c 66.26,-59.59 104.1,-144.51 104.1,-233.63 v -36.99 h 196.82 3.66 375.75"/>
      <path id="path64" style="fill:#c09629;fill-opacity:1;fill-rule:nonzero;stroke:none" d="m 6366.56,2459.06 123.5,-130.22 -194.44,-249.85 -142.92,140.81 v 97.4 h 107.46 l 72.52,77.28 -72.52,68.82 h -108.52 v 138.69 l -88.93,88.93 -88.94,-88.93 V 2463.3 h -108.52 l -72.52,-68.82 72.52,-77.28 h 107.46 v -97.4 l -142.92,-140.81 -194.44,249.85 123.5,130.22 -155.63,174.69 v -178.92 -84.7 -75.17 -518.77 h 918.97 v 518.77 75.17 84.7 178.92 l -155.63,-174.69"/>
      <path id="path66" style="fill:#c09629;fill-opacity:1;fill-rule:nonzero;stroke:none" d="M 515.754,463.672 322.379,250.84 43.6523,433.738 V 0 H 987.859 V 433.738 L 709.137,250.84 515.754,463.672"/>
      <path id="path68" style="fill:#c09629;fill-opacity:1;fill-rule:nonzero;stroke:none" d="m 791.656,749.09 103.012,-134.852 -164.469,-113.5 -118.293,128.024 92.176,73.929 c 0,0 -166.758,201.2 -188.328,231.368 C 494.188,903.891 327.43,702.691 327.43,702.691 L 419.605,628.762 301.309,500.738 136.844,614.238 239.852,749.09 43.6523,937.73 V 545.57 L 312.652,360.828 515.754,569.141 718.859,360.828 l 269,184.742 V 937.73 L 791.656,749.09"/>
      <path id="path70" style="fill:#c09629;fill-opacity:1;fill-rule:nonzero;stroke:none" d="m 2365.29,910.941 c 0,0 169.28,-142.07 180.87,-396.16 0,0 -171.33,-108.222 -62.79,-261.742 0,0 181.35,52.723 122.3,255.152 0,0 25.31,86.45 218.25,286.77 V 455.469 c 0,0 -219.3,-169.75 -150.77,-455.469 h -615.73 c 68.54,285.719 -150.76,455.469 -150.76,455.469 v 339.492 c 192.94,-200.32 218.24,-286.77 218.24,-286.77 -59.04,-202.429 122.3,-255.152 122.3,-255.152 108.54,153.52 -62.79,261.742 -62.79,261.742 11.6,254.09 180.88,396.16 180.88,396.16"/>
      <path id="path72" style="fill:#c09629;fill-opacity:1;fill-rule:nonzero;stroke:none" d="m 4542.12,786.379 -21.52,8.519 c -63.31,25.332 -128.52,75.543 -129.16,76.043 l -59.36,45.95 V 362.988 h 73.61 v 409.043 c 25.33,-15.75 56.25,-32.961 87.55,-45.48 l 21.9,-8.672 c 133.19,-52.5 234.13,-102.27 222.03,-223.418 -4.12,-41.223 -39.28,-79.59 -76.5,-120.211 -31.63,-34.531 -64.15,-70.02 -80.3,-111.48 h -315.78 v 703.468 h 63.71 V 1046 h -63.71 v 78.51 h -88.95 V 1046 h -63.72 v -79.762 h 63.72 V 262.77 h -315.78 c -16.15,41.46 -48.67,76.949 -80.31,111.48 -37.21,40.621 -72.37,78.988 -76.49,120.211 -12.1,121.148 88.84,170.918 222.03,223.418 l 21.9,8.672 c 31.3,12.519 62.21,29.73 87.54,45.48 V 362.988 h 73.62 v 553.903 l -59.36,-45.95 c -0.64,-0.5 -65.85,-50.711 -129.16,-76.043 l -21.52,-8.519 c -114.27,-45.027 -286.93,-113.059 -268.29,-299.25 6.55,-65.57 53.78,-117.117 95.45,-162.598 33.41,-36.453 64.95,-70.89 70.48,-104.562 l 5.08,-30.821 h 838.56 l 5.09,30.821 c 5.53,33.672 37.07,68.109 70.47,104.562 41.68,45.481 88.91,97.028 95.45,162.598 18.65,186.191 -154.01,254.223 -268.28,299.25"/>
      <path id="path74" style="fill:#c09629;fill-opacity:1;fill-rule:nonzero;stroke:none" d="m 3799.36,0 h 841.5 v 130.879 h -841.5 V 0"/>
      <path id="path76" style="fill:#c09629;fill-opacity:1;fill-rule:nonzero;stroke:none" d="m 6102.27,413.879 v -88.918 h 89.43 V 245.82 h -89.43 V 106.539 h -79.13 V 245.82 h -89.43 v 79.141 h 89.43 v 88.918 z M 6521.69,0 v 618.219 c 3.13,-0.457 6.25,-0.961 9.5,-0.961 35.84,0 64.89,29.062 64.89,64.902 0,35.828 -29.05,64.891 -64.89,64.891 -35.84,0 -64.89,-29.063 -64.89,-64.891 0,-17.648 7.09,-33.609 18.53,-45.308 l -224.28,-188.942 -179,343.668 c 25.73,8.344 44.46,32.211 44.46,60.723 0,35.14 -28.27,63.668 -63.31,64.09 -35.03,-0.422 -63.3,-28.95 -63.3,-64.09 0,-28.512 18.73,-52.379 44.46,-60.723 l -179,-343.668 -224.28,188.942 c 11.43,11.699 18.53,27.66 18.53,45.308 0,35.828 -29.05,64.891 -64.89,64.891 -35.84,0 -64.89,-29.063 -64.89,-64.891 0,-35.84 29.05,-64.902 64.89,-64.902 3.25,0 6.37,0.504 9.5,0.961 V 0 h 917.97"/>
    </g>
  </g>
</svg>