<?xml version="1.0" encoding="utf-8"?>
<svg viewBox="0 0 500 500" xmlns="http://www.w3.org/2000/svg" xmlns:bx="https://boxy-svg.com">
  <title>dffs</title>
  <path d="M 743 245 m -250 0 a 250 250 0 1 0 500 0 a 250 250 0 1 0 -500 0 Z M 743 245 m -230 0 a 230 230 0 0 1 460 0 a 230 230 0 0 1 -460 0 Z" style="fill: rgb(216, 216, 216);" transform="matrix(1, -0.000037, 0.000037, 1, -492.999753, 5.031329)" bx:shape="ring 743 245 230 230 250 250 1@f163cbb6"/>
  <path d="M 226.85 107.818 H 288.85 V 177.818 H 357.85 V 237.818 H 288.85 V 307.818 H 226.85 V 237.818 H 157.85 V 177.818 H 226.85 Z" style="fill: rgb(216, 216, 216);" transform="matrix(1, 0.000077, -0.000077, 1, -7.826304, 42.169846)" bx:shape="cross 157.85 107.818 200 200 60 62 0.5 1@ecebfbc9"/>
</svg>